<!-- Generator: Adobe Illustrator 22.1.0, SVG Export Plug-In  -->
<svg version="1.1"
	 xmlns="http://www.w3.org/2000/svg" xmlns:xlink="http://www.w3.org/1999/xlink" xmlns:a="http://ns.adobe.com/AdobeSVGViewerExtensions/3.0/"
	 x="0px" y="0px" width="61.1px" height="154.6px" viewBox="0 0 61.1 154.6" style="enable-background:new 0 0 61.1 154.6;"
	 xml:space="preserve">
<style type="text/css">
	.st0{enable-background:new    ;}
	.st1{clip-path:url(#SVGID_6_);enable-background:new    ;}
	.st2{fill:#AFAFAF;}
	.st3{fill:#B2B2B1;}
	.st4{fill:#B4B4B4;}
	.st5{fill:#B5B5B5;}
	.st6{fill:#B7B7B7;}
	.st7{fill:#B9B9B9;}
	.st8{fill:#BBBBBA;}
	.st9{fill:#BCBCBC;}
	.st10{fill:#C0BFBF;}
	.st11{fill:#C2C1C1;}
	.st12{fill:#C4C4C4;}
	.st13{clip-path:url(#SVGID_7_);enable-background:new    ;}
	.st14{fill:#ADADAD;}
	.st15{fill:#ABABAB;}
	.st16{fill:#A8A8A8;}
	.st17{fill:#A7A6A6;}
	.st18{fill:#A5A4A5;}
	.st19{clip-path:url(#SVGID_8_);enable-background:new    ;}
	.st20{fill:#A6A6A5;}
	.st21{clip-path:url(#SVGID_9_);enable-background:new    ;}
	.st22{fill:#C9C8C8;}
	.st23{fill:#D0CFD0;}
	.st24{clip-path:url(#SVGID_10_);enable-background:new    ;}
	.st25{clip-path:url(#SVGID_12_);enable-background:new    ;}
	.st26{clip-path:url(#SVGID_14_);enable-background:new    ;}
	.st27{clip-path:url(#SVGID_16_);enable-background:new    ;}
	.st28{clip-path:url(#SVGID_18_);enable-background:new    ;}
	.st29{clip-path:url(#SVGID_20_);enable-background:new    ;}
</style>
<defs>
</defs>
<g>
	<g class="st0">
		<g class="st0">
			<defs>
				<path id="SVGID_5_" class="st0" d="M29.5,137c-0.1-0.1-0.3-0.2-0.4-0.2c-1.6-0.9-3.1-1.8-4.7-2.7c-0.2-0.1-0.5-0.3-0.8-0.5
					c-0.6-0.4-1.3-0.8-1.9-1.1c1.3,0.7,3.1,0.6,5-0.5l7.8,4.5C32.6,137.7,30.8,137.8,29.5,137z"/>
			</defs>
			<clipPath id="SVGID_6_">
				<use xlink:href="#SVGID_5_"  style="overflow:visible;"/>
			</clipPath>
			<g class="st1">
				<path class="st2" d="M29.5,137l-7.8-4.5c0,0,0,0,0,0L29.5,137C29.5,137,29.5,137,29.5,137"/>
				<path class="st3" d="M29.5,137l-7.8-4.5c0.1,0.1,0.2,0.1,0.4,0.2l7.8,4.5C29.8,137.2,29.6,137.1,29.5,137"/>
				<path class="st4" d="M29.9,137.2l-7.8-4.5c0.1,0.1,0.2,0.1,0.4,0.1l7.8,4.5C30.1,137.3,30,137.3,29.9,137.2"/>
				<path class="st5" d="M30.3,137.3l-7.8-4.5c0.1,0,0.3,0.1,0.4,0.1l7.8,4.5C30.5,137.4,30.4,137.4,30.3,137.3"/>
				<path class="st6" d="M30.7,137.4l-7.8-4.5c0.1,0,0.3,0,0.4,0l7.8,4.5C30.9,137.5,30.8,137.5,30.7,137.4"/>
				<path class="st7" d="M31.1,137.5l-7.8-4.5c0.2,0,0.3,0,0.5,0l7.8,4.5C31.4,137.5,31.2,137.5,31.1,137.5"/>
				<path class="st8" d="M31.5,137.5l-7.8-4.5c0.2,0,0.3,0,0.5-0.1l7.8,4.5C31.9,137.5,31.7,137.5,31.5,137.5"/>
				<path class="st9" d="M32.1,137.4l-7.8-4.5c0.2,0,0.4-0.1,0.6-0.1l7.8,4.5C32.5,137.4,32.3,137.4,32.1,137.4"/>
				<path class="st10" d="M32.7,137.3l-7.8-4.5c0.3-0.1,0.5-0.2,0.8-0.3l7.8,4.5C33.2,137.1,33,137.2,32.7,137.3"/>
				<path class="st11" d="M33.5,137l-7.8-4.5c0.3-0.1,0.5-0.2,0.8-0.4l7.8,4.5C34.1,136.8,33.8,136.9,33.5,137"/>
				<path class="st12" d="M34.4,136.6l-7.8-4.5c0.1,0,0.1-0.1,0.2-0.1l7.8,4.5C34.5,136.6,34.4,136.6,34.4,136.6"/>
			</g>
		</g>
		<g class="st0">
			<defs>
				<path id="SVGID_4_" class="st0" d="M31.7,115.3l7.8,4.5c1.3,0.7,2,2.3,2.1,4.5c0,4.5-3.1,9.9-7,12.2l-7.8-4.5
					c3.9-2.3,7-7.7,7-12.2C33.7,117.6,32.9,116,31.7,115.3z"/>
			</defs>
			<clipPath id="SVGID_7_">
				<use xlink:href="#SVGID_4_"  style="overflow:visible;"/>
			</clipPath>
			<g class="st13">
				<path class="st12" d="M34.5,136.5l-7.8-4.5c0.9-0.5,1.7-1.2,2.5-1.9l7.8,4.5C36.2,135.4,35.4,136,34.5,136.5"/>
				<path class="st11" d="M37,134.6l-7.8-4.5c0.2-0.2,0.5-0.5,0.7-0.8l7.8,4.5C37.5,134.1,37.2,134.3,37,134.6"/>
				<path class="st10" d="M37.7,133.8l-7.8-4.5c0.2-0.2,0.3-0.4,0.5-0.6l7.8,4.5C38,133.4,37.9,133.6,37.7,133.8"/>
				<path class="st9" d="M38.2,133.2l-7.8-4.5c0.1-0.2,0.3-0.4,0.4-0.5l7.8,4.5C38.5,132.8,38.3,133,38.2,133.2"/>
				<path class="st8" d="M38.6,132.7l-7.8-4.5c0.1-0.2,0.2-0.3,0.4-0.5l7.8,4.5C38.8,132.3,38.7,132.5,38.6,132.7"/>
				<path class="st7" d="M39,132.1l-7.8-4.5c0.1-0.2,0.2-0.3,0.3-0.5l7.8,4.5C39.2,131.8,39.1,132,39,132.1"/>
				<path class="st6" d="M39.3,131.6l-7.8-4.5c0.1-0.2,0.2-0.3,0.3-0.5l7.8,4.5C39.5,131.3,39.4,131.4,39.3,131.6"/>
				<path class="st5" d="M39.6,131.1l-7.8-4.5c0.1-0.2,0.2-0.3,0.3-0.5l7.8,4.5C39.8,130.7,39.7,130.9,39.6,131.1"/>
				<path class="st4" d="M39.9,130.6l-7.8-4.5c0.1-0.2,0.2-0.3,0.2-0.5l7.8,4.5C40,130.3,40,130.4,39.9,130.6"/>
				<path class="st3" d="M40.1,130.1l-7.8-4.5c0.1-0.2,0.2-0.4,0.3-0.6l7.8,4.5C40.3,129.7,40.2,129.9,40.1,130.1"/>
				<path class="st2" d="M40.4,129.5l-7.8-4.5c0.1-0.2,0.2-0.4,0.3-0.6l7.8,4.5C40.5,129.1,40.5,129.3,40.4,129.5"/>
				<path class="st14" d="M40.6,128.9l-7.8-4.5c0.1-0.2,0.2-0.4,0.2-0.7l7.8,4.5C40.8,128.5,40.7,128.7,40.6,128.9"/>
				<path class="st15" d="M40.9,128.2l-7.8-4.5c0.1-0.2,0.2-0.5,0.2-0.7l7.8,4.5C41,127.8,40.9,128,40.9,128.2"/>
				<path class="st16" d="M41.1,127.5l-7.8-4.5c0.1-0.3,0.1-0.5,0.2-0.8l7.8,4.5C41.2,127,41.2,127.2,41.1,127.5"/>
				<path class="st17" d="M41.3,126.7l-7.8-4.5c0.1-0.3,0.1-0.7,0.2-1l7.8,4.5C41.4,126.1,41.3,126.4,41.3,126.7"/>
				<path class="st18" d="M41.4,125.7l-7.8-4.5c0.1-0.5,0.1-0.9,0.1-1.4c0-2.2-0.8-3.8-2.1-4.5l7.8,4.5c1.3,0.7,2,2.3,2.1,4.5
					C41.5,124.8,41.5,125.3,41.4,125.7"/>
			</g>
		</g>
		<g class="st0">
			<defs>
				<path id="SVGID_3_" class="st0" d="M45.6,83.3l7.8,4.5c-3.1-1.8-6.9-2.3-11.3-1.3L34.3,82C38.6,81,42.5,81.5,45.6,83.3z"/>
			</defs>
			<clipPath id="SVGID_8_">
				<use xlink:href="#SVGID_3_"  style="overflow:visible;"/>
			</clipPath>
			<g class="st19">
				<path class="st9" d="M42.1,86.5L34.3,82c0.5-0.1,1-0.2,1.5-0.3l7.8,4.5C43.1,86.3,42.6,86.4,42.1,86.5"/>
				<path class="st8" d="M43.6,86.2l-7.8-4.5c0.7-0.1,1.3-0.2,2-0.2l7.8,4.5C45,86.1,44.3,86.1,43.6,86.2"/>
				<path class="st7" d="M45.6,86l-7.8-4.5c0.6,0,1.2,0,1.8,0l7.8,4.5C46.8,86,46.2,86,45.6,86"/>
				<path class="st6" d="M47.4,86.1l-7.8-4.5c0.5,0,1.1,0.1,1.6,0.2l7.8,4.5C48.4,86.2,47.9,86.1,47.4,86.1"/>
				<path class="st5" d="M49,86.2l-7.8-4.5c0.5,0.1,1,0.2,1.5,0.3l7.8,4.5C50,86.4,49.5,86.3,49,86.2"/>
				<path class="st4" d="M50.5,86.6l-7.8-4.5c0.5,0.1,1,0.3,1.4,0.5l7.8,4.5C51.4,86.9,50.9,86.7,50.5,86.6"/>
				<path class="st3" d="M51.9,87.1l-7.8-4.5c0.5,0.2,0.9,0.4,1.3,0.7l7.8,4.5C52.8,87.5,52.3,87.3,51.9,87.1"/>
				<path class="st2" d="M53.2,87.7l-7.8-4.5c0,0,0.1,0.1,0.1,0.1l7.8,4.5C53.3,87.8,53.3,87.8,53.2,87.7"/>
			</g>
		</g>
		<g>
			<polygon class="st20" points="42,67.7 34.2,63.1 38.8,60.5 46.6,65 			"/>
		</g>
		<g class="st0">
			<defs>
				<path id="SVGID_2_" class="st0" d="M15.6,152.8c-2.6-1.5-5.2-3-7.8-4.5C3,145.5,0,139.6,0,131.2c0-13.8,7.9-30.1,18.9-40.3
					l7.8,4.5c-10.9,10.1-18.9,26.4-18.9,40.3C7.8,144.1,10.8,150,15.6,152.8z"/>
			</defs>
			<clipPath id="SVGID_9_">
				<use xlink:href="#SVGID_2_"  style="overflow:visible;"/>
			</clipPath>
			<g class="st21">
				<path class="st18" d="M15.6,152.8l-7.8-4.5C3,145.5,0,139.6,0,131.2c0-1.7,0.1-3.4,0.3-5.2l7.8,4.5c-0.2,1.7-0.3,3.5-0.3,5.2
					C7.8,144.1,10.8,150,15.6,152.8"/>
				<path class="st17" d="M8.1,130.5L0.3,126c0.2-1.3,0.4-2.5,0.6-3.8l7.8,4.5C8.5,128,8.3,129.3,8.1,130.5"/>
				<path class="st16" d="M8.8,126.8L1,122.2c0.2-1,0.5-2,0.7-3l7.8,4.5C9.2,124.7,9,125.8,8.8,126.8"/>
				<path class="st15" d="M9.5,123.7l-7.8-4.5c0.3-0.9,0.5-1.8,0.8-2.7l7.8,4.5C10.1,121.9,9.8,122.8,9.5,123.7"/>
				<path class="st14" d="M10.4,121l-7.8-4.5c0.3-0.8,0.6-1.7,0.9-2.5l7.8,4.5C10.9,119.3,10.6,120.2,10.4,121"/>
				<path class="st2" d="M11.3,118.5L3.5,114c0.3-0.8,0.6-1.6,1-2.4l7.8,4.5C11.9,116.9,11.6,117.7,11.3,118.5"/>
				<path class="st3" d="M12.2,116.1l-7.8-4.5c0.3-0.7,0.7-1.5,1-2.2l7.8,4.5C12.9,114.6,12.6,115.4,12.2,116.1"/>
				<path class="st4" d="M13.2,113.9l-7.8-4.5c0.3-0.6,0.6-1.1,0.9-1.7l7.8,4.5C13.8,112.7,13.5,113.3,13.2,113.9"/>
				<path class="st5" d="M14.1,112.2l-7.8-4.5c0.3-0.7,0.7-1.3,1.1-2l7.8,4.5C14.8,110.8,14.5,111.5,14.1,112.2"/>
				<path class="st6" d="M15.2,110.2l-7.8-4.5c0.4-0.7,0.8-1.3,1.1-2l7.8,4.5C15.9,108.9,15.5,109.5,15.2,110.2"/>
				<path class="st7" d="M16.3,108.2l-7.8-4.5c0.4-0.7,0.8-1.3,1.2-2l7.8,4.5C17.1,106.9,16.7,107.6,16.3,108.2"/>
				<path class="st8" d="M17.6,106.3l-7.8-4.5c0.4-0.7,0.9-1.3,1.4-2l7.8,4.5C18.5,104.9,18,105.6,17.6,106.3"/>
				<path class="st9" d="M18.9,104.3l-7.8-4.5c0.5-0.7,1-1.4,1.5-2.1l7.8,4.5C19.9,102.9,19.4,103.6,18.9,104.3"/>
				<path class="st10" d="M20.5,102.2l-7.8-4.5c0.6-0.8,1.2-1.6,1.9-2.3l7.8,4.5C21.7,100.7,21.1,101.4,20.5,102.2"/>
				<path class="st11" d="M22.4,99.9l-7.8-4.5c0.8-1,1.7-1.9,2.6-2.8l7.8,4.5C24.1,98,23.2,98.9,22.4,99.9"/>
				<path class="st12" d="M25,97.1l-7.8-4.5c0.6-0.6,1.1-1.1,1.7-1.6l7.8,4.5C26.1,96,25.5,96.5,25,97.1"/>
			</g>
		</g>
		<g>
			<polygon class="st20" points="42,36.7 34.2,32.2 42.2,27.5 50,32.1 			"/>
		</g>
		<g>
			<polygon class="st20" points="41.9,22.9 34.1,18.4 42.2,13.8 50,18.3 			"/>
		</g>
		<g>
			<polygon class="st20" points="26.7,95.4 18.9,90.9 18.7,22.4 26.5,27 			"/>
		</g>
		<g>
			<polygon class="st22" points="34.2,13.6 26.4,9.1 42.1,0 49.9,4.5 			"/>
		</g>
		<g>
			<path class="st23" d="M42.1,86.5c11-2.5,19,4.6,19,18.4c0,16.9-11.8,37.5-26.6,46c-14.7,8.5-26.7,1.7-26.7-15.2
				c0-13.8,7.9-30.1,18.9-40.3L26.5,27c0-4.9,3.4-10.9,7.7-13.3l15.8-9.1l0,9.6l-8,4.6l0,4.1l8-4.6l0,9.6l-8,4.6l0,4.1l8-4.6l0,9.6
				l-8,4.6L42,67.7l4.6-2.7l0,14.5l-4.6,2.7L42.1,86.5z M34.5,136.5c3.9-2.3,7-7.7,7-12.2c0-4.5-3.2-6.3-7.1-4
				c-3.9,2.2-7,7.7-7,12.2C27.5,137,30.6,138.8,34.5,136.5"/>
		</g>
		<g class="st0">
			<defs>
				<path id="SVGID_1_" class="st0" d="M26.5,27l-7.8-4.5c0-4.9,3.4-10.9,7.7-13.3l7.8,4.5C29.9,16.1,26.5,22.1,26.5,27z"/>
			</defs>
			<clipPath id="SVGID_10_">
				<use xlink:href="#SVGID_1_"  style="overflow:visible;"/>
			</clipPath>
			<g class="st24">
				<path class="st18" d="M26.5,27l-7.8-4.5c0-0.5,0-1,0.1-1.5l7.8,4.5C26.5,26,26.5,26.5,26.5,27"/>
				<path class="st17" d="M26.6,25.5l-7.8-4.5c0-0.4,0.1-0.7,0.2-1.1l7.8,4.5C26.7,24.7,26.6,25.1,26.6,25.5"/>
				<path class="st16" d="M26.8,24.4l-7.8-4.5c0.1-0.3,0.1-0.6,0.2-0.9l7.8,4.5C26.9,23.8,26.8,24.1,26.8,24.4"/>
				<path class="st15" d="M27,23.5L19.2,19c0.1-0.3,0.2-0.5,0.2-0.8l7.8,4.5C27.1,23,27,23.2,27,23.5"/>
				<path class="st14" d="M27.2,22.7l-7.8-4.5c0.1-0.2,0.2-0.5,0.3-0.7l7.8,4.5C27.4,22.2,27.3,22.5,27.2,22.7"/>
				<path class="st2" d="M27.5,22l-7.8-4.5c0.1-0.2,0.2-0.5,0.3-0.7l7.8,4.5C27.7,21.5,27.6,21.7,27.5,22"/>
				<path class="st3" d="M27.8,21.3L20,16.8c0.1-0.2,0.2-0.4,0.3-0.6l7.8,4.5C27.9,20.9,27.8,21.1,27.8,21.3"/>
				<path class="st4" d="M28,20.7l-7.8-4.5c0.1-0.2,0.2-0.3,0.3-0.5l7.8,4.5C28.2,20.3,28.1,20.5,28,20.7"/>
				<path class="st5" d="M28.3,20.1l-7.8-4.5c0.1-0.2,0.2-0.4,0.3-0.6l7.8,4.5C28.5,19.8,28.4,20,28.3,20.1"/>
				<path class="st6" d="M28.6,19.6L20.8,15c0.1-0.2,0.2-0.4,0.3-0.6l7.8,4.5C28.8,19.2,28.7,19.4,28.6,19.6"/>
				<path class="st7" d="M28.9,19l-7.8-4.5c0.1-0.2,0.2-0.4,0.4-0.6l7.8,4.5C29.2,18.6,29.1,18.8,28.9,19"/>
				<path class="st8" d="M29.3,18.4l-7.8-4.5c0.1-0.2,0.3-0.4,0.4-0.6l7.8,4.5C29.6,18.1,29.4,18.2,29.3,18.4"/>
				<path class="st9" d="M29.7,17.9l-7.8-4.5c0.1-0.2,0.3-0.4,0.4-0.6l7.8,4.5C30,17.5,29.8,17.7,29.7,17.9"/>
				<path class="st10" d="M30.1,17.3l-7.8-4.5c0.2-0.2,0.4-0.4,0.5-0.7l7.8,4.5C30.5,16.8,30.3,17,30.1,17.3"/>
				<path class="st11" d="M30.7,16.6l-7.8-4.5c0.3-0.3,0.5-0.6,0.8-0.8l7.8,4.5C31.2,16,30.9,16.3,30.7,16.6"/>
				<path class="st12" d="M31.5,15.8l-7.8-4.5c0.8-0.8,1.8-1.6,2.7-2.1l7.8,4.5C33.2,14.2,32.3,14.9,31.5,15.8"/>
			</g>
		</g>
	</g>
</g>
</svg>
