<!-- Generator: Adobe Illustrator 22.1.0, SVG Export Plug-In  -->
<svg version="1.1"
	 xmlns="http://www.w3.org/2000/svg" xmlns:xlink="http://www.w3.org/1999/xlink" xmlns:a="http://ns.adobe.com/AdobeSVGViewerExtensions/3.0/"
	 x="0px" y="0px" width="27.3px" height="46.3px" viewBox="0 0 27.3 46.3" style="enable-background:new 0 0 27.3 46.3;"
	 xml:space="preserve">
<style type="text/css">
	.st0{enable-background:new    ;}
	.st1{fill:#DA4D43;}
	.st2{fill:#ED5F55;}
</style>
<defs>
</defs>
<g>
	<g class="st0">
		<g>
			<path class="st1" d="M9.5,27.7l-3.2-1.8c1.5,0.9,3.5,0.8,5.8-0.6l3.2,1.8C13,28.4,10.9,28.6,9.5,27.7z"/>
		</g>
		<g>
			<path class="st1" d="M17.9,5.5L21,7.4c1.5,0.9,2.4,2.8,2.4,5.4c0,5.3-3.7,11.7-8.2,14.4l-3.2-1.8c4.6-2.6,8.2-9.1,8.2-14.4
				C20.3,8.3,19.4,6.4,17.9,5.5z"/>
		</g>
		<g>
			<path class="st1" d="M20.7,0.8l3.2,1.8c-2.2-1.3-5.3-1.1-8.7,0.9L12,1.7C15.4-0.3,18.5-0.5,20.7,0.8z"/>
		</g>
		<g>
			<path class="st1" d="M15.3,46.3l-3.2-1.8C11.5,43.7,0,29.7,0,22.2C0,14.7,5.4,5.5,12,1.7l3.2,1.8c-6.7,3.8-12,13-12,20.5
				C3.2,31.6,14.7,45.6,15.3,46.3z"/>
		</g>
		<g>
			<path class="st2" d="M15.2,3.5c6.7-3.8,12.1-0.9,12.1,6.6c0,7.5-11.4,34.7-12,36.2C14.7,45.6,3.2,31.6,3.2,24.1
				C3.1,16.6,8.5,7.4,15.2,3.5z M15.3,27.1c4.6-2.6,8.2-9.1,8.2-14.4c0-5.3-3.7-7.5-8.3-4.9C10.7,10.5,7,17,7,22.3
				C7,27.6,10.7,29.8,15.3,27.1"/>
		</g>
	</g>
</g>
</svg>
